<?xml version="1.0" encoding="utf-8"?>
<!-- Generator: Adobe Illustrator 23.0.1, SVG Export Plug-In . SVG Version: 6.00 Build 0)  -->
<svg version="1.1" id="Layer_1" xmlns="http://www.w3.org/2000/svg" xmlns:xlink="http://www.w3.org/1999/xlink" x="0px" y="0px"
	 viewBox="0 0 1920 1080" style="enable-background:new 0 0 1920 1080;" xml:space="preserve">
<style type="text/css">
	.st0{fill:url(#SVGID_1_);}
	.st1{font-family:'AgathoBold';}
	.st2{font-size:92.213px;}
	.st3{letter-spacing:9;}
	.st4{letter-spacing:6;}
</style>
<g>
	<linearGradient id="SVGID_1_" gradientUnits="userSpaceOnUse" x1="1002.5323" y1="215.7759" x2="902.7303" y2="694.8254">
		<stop  offset="0" style="stop-color:#F8657A"/>
		<stop  offset="0.1719" style="stop-color:#F25B7A"/>
		<stop  offset="0.4642" style="stop-color:#E3407B"/>
		<stop  offset="0.8388" style="stop-color:#CB157C"/>
		<stop  offset="1" style="stop-color:#BF007C"/>
	</linearGradient>
	<path class="st0" d="M940.41,587.13c-2.64-3.33-5.37-5.81-7.61-7.57c-2.26,1.35-5.18,3.38-8.09,6.36c-2.8,2.87-4.73,5.73-5.99,7.96
		c1.63,1.24,6.36,4.49,13.26,4.75c6.82,0.3,11.75-2.49,13.49-3.59C944.32,592.74,942.69,589.98,940.41,587.13z M940.41,587.13
		c-2.64-3.33-5.37-5.81-7.61-7.57c-2.26,1.35-5.18,3.38-8.09,6.36c-2.8,2.87-4.73,5.73-5.99,7.96c1.63,1.24,6.36,4.49,13.26,4.75
		c6.82,0.3,11.75-2.49,13.49-3.59C944.32,592.74,942.69,589.98,940.41,587.13z M940.41,587.13c-2.64-3.33-5.37-5.81-7.61-7.57
		c-2.26,1.35-5.18,3.38-8.09,6.36c-2.8,2.87-4.73,5.73-5.99,7.96c1.63,1.24,6.36,4.49,13.26,4.75c6.82,0.3,11.75-2.49,13.49-3.59
		C944.32,592.74,942.69,589.98,940.41,587.13z M940.41,587.13c-2.64-3.33-5.37-5.81-7.61-7.57c-2.26,1.35-5.18,3.38-8.09,6.36
		c-2.8,2.87-4.73,5.73-5.99,7.96c1.63,1.24,6.36,4.49,13.26,4.75c6.82,0.3,11.75-2.49,13.49-3.59
		C944.32,592.74,942.69,589.98,940.41,587.13z M940.41,587.13c-2.64-3.33-5.37-5.81-7.61-7.57c-2.26,1.35-5.18,3.38-8.09,6.36
		c-2.8,2.87-4.73,5.73-5.99,7.96c1.63,1.24,6.36,4.49,13.26,4.75c6.82,0.3,11.75-2.49,13.49-3.59
		C944.32,592.74,942.69,589.98,940.41,587.13z M940.41,587.13c-2.64-3.33-5.37-5.81-7.61-7.57c-2.26,1.35-5.18,3.38-8.09,6.36
		c-2.8,2.87-4.73,5.73-5.99,7.96c1.63,1.24,6.36,4.49,13.26,4.75c6.82,0.3,11.75-2.49,13.49-3.59
		C944.32,592.74,942.69,589.98,940.41,587.13z M1059.45,579.43c-10.41-25.33-18.06-35.1-46.07-67.22
		c-6.54-7.51-6.91-7.89-21.41-23.93c-15.4-17.03-32.14-36.91-37.13-43.41c-24.19-31.44-46.52-86.59-19.79-156.7
		c5.26-13.78,21.32-40.29,48.53-65.2c-23.15,4.35-74.79,32.86-119.62,84.37c-37.99,43.65-50.32,91.37-56.45,116.05
		c-5.08,23.14-12.36,71.36,6.55,132.97c20.28,66.08,59.25,103.98,77.83,118.65c18.55,14.66,40.23,29.74,71.79,32.59
		c31.2,2.83,45.79-2.14,56.15-7.43c6.67-3.4,12.94-7.06,23.01-16.63c13.88-13.17,18.22-25.6,20.85-34.39
		C1072.63,619.24,1063.84,590.12,1059.45,579.43z M901.16,616.57l-1.41,7.58l-0.14,0.82c-0.06,0.25-0.13,0.51-0.25,0.73
		c-0.17,0.28-0.35,0.52-0.58,0.75c-1.15,1.11-3.08,1.32-4.71,0.41c-1.43-0.8-2.25-2.25-2.21-3.64c0.03-0.46,0.14-0.93,0.35-1.35
		v-0.01l0.7-0.9l4.73-6.16l0.34-0.44c0.28-0.25,0.65-0.41,1.03-0.44c0.41-0.04,0.83,0.04,1.22,0.27c0.3,0.15,0.52,0.37,0.7,0.62
		c0.3,0.39,0.38,0.89,0.31,1.32L901.16,616.57z M901.16,602.94c2.91-5.11,7.29-11.6,13.71-18.17c6.64-6.82,13.28-11.48,18.46-14.54
		c5.15,4.04,11.37,9.68,17.41,17.3c5.19,6.54,8.92,12.84,11.56,18.12c-3.98,2.49-15.23,8.83-30.82,8.2
		C915.7,613.19,904.91,605.78,901.16,602.94z M916.82,622.51l-0.06,0.55l-1,9.41l-0.11,1.03c-0.04,0.32-0.11,0.63-0.24,0.91
		c-0.17,0.37-0.38,0.68-0.63,0.97c-1.31,1.46-3.64,1.91-5.74,0.96c-1.84-0.86-2.97-2.55-3.04-4.28v-0.18c0-0.51,0.1-1.01,0.3-1.51
		l0.77-1.18l5.22-7.99l0.37-0.58c0.32-0.32,0.75-0.55,1.22-0.62c0.48-0.08,1.03-0.03,1.53,0.21c0.35,0.17,0.66,0.39,0.9,0.68
		c0,0.01,0.01,0.01,0.01,0.01C916.72,621.37,916.88,621.94,916.82,622.51z M936.23,637.8c0,0.62-0.13,1.21-0.34,1.76
		c-0.73,1.83-2.62,3.22-4.92,3.43c-2.63,0.22-4.98-1.17-5.82-3.25c-0.15-0.41-0.27-0.84-0.31-1.28c0-0.01,0-0.01,0-0.01
		c-0.03-0.35,0.01-0.72,0.1-1.07l0.28-1.15l2.56-10.54l0.15-0.62c0.15-0.62,0.55-1.18,1.15-1.52c0-0.01,0-0.01,0.01-0.01
		c0.37-0.21,0.79-0.35,1.24-0.39c0.63-0.04,1.24,0.08,1.73,0.38c0.48,0.25,0.86,0.65,1.07,1.14l0.18,0.76l2.53,10.62l0.38,1.58
		V637.8z M954.67,635.38c-0.41,1.67-1.84,3.12-3.81,3.6c-2.24,0.55-4.46-0.35-5.44-2.04c-0.2-0.34-0.34-0.69-0.44-1.07
		c-0.04-0.21-0.07-0.44-0.07-0.65c0-0.1,0-0.2,0.01-0.3l0.08-1.03l0.84-9.44l0.04-0.55c0.06-0.55,0.32-1.1,0.79-1.48
		c0.01,0,0.01,0,0.01,0c0.3-0.24,0.63-0.41,1.03-0.51c0.53-0.13,1.08-0.08,1.55,0.1c0.44,0.17,0.82,0.45,1.07,0.84l0.25,0.63
		l3.57,8.85l0.53,1.31c0.06,0.27,0.07,0.52,0.07,0.79C954.77,634.76,954.74,635.07,954.67,635.38z M962.21,628.74
		c-0.23-0.21-0.42-0.46-0.58-0.75c-0.13-0.23-0.21-0.46-0.25-0.73l-0.15-0.82l-1.39-7.58l-0.08-0.44c-0.08-0.45,0.01-0.93,0.3-1.34
		c0.01,0,0.01,0,0.01,0c0.17-0.24,0.41-0.46,0.69-0.62c0.39-0.21,0.83-0.3,1.24-0.25c0.38,0.03,0.75,0.17,1.01,0.42l0.35,0.44
		l4.73,6.16l0.69,0.91c0.23,0.42,0.34,0.89,0.35,1.35c0.06,1.41-0.76,2.86-2.19,3.66C965.29,630.06,963.35,629.85,962.21,628.74z
		 M1007.65,652.97c-13.73,13.35-30.05,14.88-40.88,11.67c4.64-0.94,12.9-3.8,20.06-11.17c10.41-10.72,11.28-24.22,11.6-29.31
		c1.86-28.64-21.49-62.78-50.62-70.63c-16.16-4.35-37.13-2.11-56.57,0.4c-12.43,1.6-24.9,4.08-31.47-3.01
		c-2.5-2.7-3.6-5.38-3.95-8.85c-0.39-3.74,0.46-7.5,2.24-10.82c0.32-0.6,0.67-1.23,0.94-1.88c0.91-2.18,1.76-11.45-4.4-15.03
		c-1.47-0.85-3.41-2.05-7.53-2.51c-0.44-1.28-1.01-3.24-1.05-5.4c-0.01-0.65,0.15-3.98,2.15-6.74c2.53-3.49,11.94-4.17,12.07-4.32
		c0,0-6.99-2.36-9.75-3.5c-1.9-0.69-2.63-1.03-3.6-1.6c-3.28-1.96-4.35-6.37-4.64-10.45c2.05-0.66,4.77-2.29,8.09-5.46
		c0.91-0.87,1.66-1.9,2.18-3.05c0.77-1.69,1.45-3.88,1.39-6.05c-0.01-0.44-0.1-0.87-0.3-1.27c-2.48-5.06-13.15-4.93-18.3-9.28
		c-2.17-1.81-3.14-3.53-3.84-5.74c-0.29-0.92-1.59-5,0.72-7.04c5.46-4.82,11.6-8.26,18.36-14.13c9.82-8.53,19.11-17.67,21.93-25.19
		c2.58-6.88,1.08-14.6,0.96-24.66c-0.12-10,0.68-19.42,3.08-29.57c3.08-13.05,6.81-25.04,16.99-41.49
		c7.67-12.39,15.15-19.63,26.15-29.29c-13.47,20.24-21.67,54.15-22.9,74.91c-2.72,46.2,6.99,67.97,26.23,101.73
		c13.77,24.19,27.01,42.26,36.42,54.32c11.37,14.56,21.86,25.81,36.56,47.71c9.49,14.18,13.81,21.77,17.13,29.06
		C1015.41,590.43,1030.01,631.21,1007.65,652.97z M945.47,595.05c-1.15-2.31-2.79-5.06-5.06-7.92c-2.64-3.33-5.37-5.81-7.61-7.57
		c-2.26,1.35-5.18,3.38-8.09,6.36c-2.8,2.87-4.73,5.73-5.99,7.96c1.63,1.24,6.36,4.49,13.26,4.75
		C938.81,598.93,943.73,596.14,945.47,595.05z M940.41,587.13c-2.64-3.33-5.37-5.81-7.61-7.57c-2.26,1.35-5.18,3.38-8.09,6.36
		c-2.8,2.87-4.73,5.73-5.99,7.96c1.63,1.24,6.36,4.49,13.26,4.75c6.82,0.3,11.75-2.49,13.49-3.59
		C944.32,592.74,942.69,589.98,940.41,587.13z M940.41,587.13c-2.64-3.33-5.37-5.81-7.61-7.57c-2.26,1.35-5.18,3.38-8.09,6.36
		c-2.8,2.87-4.73,5.73-5.99,7.96c1.63,1.24,6.36,4.49,13.26,4.75c6.82,0.3,11.75-2.49,13.49-3.59
		C944.32,592.74,942.69,589.98,940.41,587.13z M940.41,587.13c-2.64-3.33-5.37-5.81-7.61-7.57c-2.26,1.35-5.18,3.38-8.09,6.36
		c-2.8,2.87-4.73,5.73-5.99,7.96c1.63,1.24,6.36,4.49,13.26,4.75c6.82,0.3,11.75-2.49,13.49-3.59
		C944.32,592.74,942.69,589.98,940.41,587.13z M940.41,587.13c-2.64-3.33-5.37-5.81-7.61-7.57c-2.26,1.35-5.18,3.38-8.09,6.36
		c-2.8,2.87-4.73,5.73-5.99,7.96c1.63,1.24,6.36,4.49,13.26,4.75c6.82,0.3,11.75-2.49,13.49-3.59
		C944.32,592.74,942.69,589.98,940.41,587.13z M940.41,587.13c-2.64-3.33-5.37-5.81-7.61-7.57c-2.26,1.35-5.18,3.38-8.09,6.36
		c-2.8,2.87-4.73,5.73-5.99,7.96c1.63,1.24,6.36,4.49,13.26,4.75c6.82,0.3,11.75-2.49,13.49-3.59
		C944.32,592.74,942.69,589.98,940.41,587.13z M940.41,587.13c-2.64-3.33-5.37-5.81-7.61-7.57c-2.26,1.35-5.18,3.38-8.09,6.36
		c-2.8,2.87-4.73,5.73-5.99,7.96c1.63,1.24,6.36,4.49,13.26,4.75c6.82,0.3,11.75-2.49,13.49-3.59
		C944.32,592.74,942.69,589.98,940.41,587.13z"/>
	<g>
		<g>
			<text transform="matrix(1 0 0 1 381.4823 837.2864)" class="st1 st2 st3">MODEST</text>
			<text transform="matrix(1 0 0 1 813.9764 837.2864)"><tspan x="0" y="0" class="st1 st2 st3">F</tspan><tspan x="53.39" y="0" class="st1 st2 st4">A</tspan><tspan x="120.34" y="0" class="st1 st2 st3">SHION</tspan></text>
			<text transform="matrix(1 0 0 1 1259.2074 837.2864)" class="st1 st2 st3">SHOW</text>
		</g>
	</g>
</g>
</svg>
